# Blender v2.71 (sub 0) OBJ File: ''
# www.blender.org
mtllib l_upperarm.mtl
o zoey_color_bmp_004_zoey_color_bmp.004
v -0.035866 0.027106 -0.004793
v -0.025642 0.039541 -0.004829
v -0.031573 0.036720 -0.031165
v -0.042846 0.022112 -0.051751
v -0.036345 0.032113 -0.066301
v -0.050817 0.020240 -0.082993
v -0.043517 0.031663 -0.094833
v -0.067622 0.022449 -0.133903
v -0.059901 0.036127 -0.138537
v -0.081670 0.036017 -0.176031
v -0.071507 0.043167 -0.178341
v -0.076273 0.044010 -0.191103
v -0.059861 0.049206 -0.196789
v -0.042266 0.043033 -0.201561
v -0.033726 0.018672 -0.207515
v -0.020959 0.044588 -0.029771
v -0.024425 0.043052 -0.050595
v -0.027786 0.039880 -0.078991
v -0.032953 0.042047 -0.103733
v -0.047973 0.047955 -0.146901
v -0.055516 0.049213 -0.181129
v -0.039405 0.041851 -0.188439
v -0.031969 0.020075 -0.192803
v -0.032312 0.001132 -0.194919
v -0.035900 -0.000289 -0.210401
v -0.031570 0.046277 -0.157311
v -0.018821 0.042889 -0.112093
v -0.013933 0.041128 -0.087673
v -0.014177 0.040980 -0.068313
v -0.014230 0.044156 -0.050251
v -0.011721 0.047315 -0.040771
v -0.015090 0.047900 -0.019113
v -0.009967 0.049732 -0.036841
v -0.009470 0.050498 -0.015063
v -0.008313 0.051290 -0.036061
v -0.002521 0.054340 -0.012319
v -0.003967 0.042522 0.011397
v 0.011638 0.046676 0.015947
v -0.006392 0.025945 -0.067947
v -0.008322 0.030331 -0.059507
v -0.008808 0.032126 -0.054319
v -0.008189 0.034146 -0.050121
v -0.019094 0.020473 -0.155127
v -0.008975 0.023148 -0.116409
v -0.004589 0.023665 -0.092699
v -0.005266 0.024337 -0.077961
v -0.007180 -0.008959 -0.054221
v -0.007783 -0.008159 -0.058133
v -0.004624 -0.007483 -0.063239
v -0.002767 -0.007865 -0.069993
v -0.001795 -0.007120 -0.078179
v -0.002931 -0.004715 -0.092259
v -0.009150 -0.003940 -0.114477
v -0.018018 -0.002946 -0.154015
v -0.089544 0.016277 -0.188297
v -0.086396 0.017543 -0.173887
v -0.086940 0.036279 -0.188207
v -0.022324 -0.025132 -0.148705
v -0.018018 -0.002946 -0.154015
v -0.009150 -0.003940 -0.114477
v -0.035794 -0.017581 -0.190793
v -0.048505 -0.023956 -0.185085
v -0.053171 -0.023455 -0.202217
v -0.065363 -0.026801 -0.182013
v -0.070389 -0.025061 -0.195959
v -0.032312 0.001132 -0.194919
v -0.040029 -0.016521 -0.207683
v -0.035900 -0.000289 -0.210401
v -0.083100 -0.014148 -0.190901
v -0.079293 -0.016745 -0.176049
v -0.054169 -0.031929 -0.143115
v -0.035509 -0.034494 -0.145083
v -0.011830 -0.031509 -0.112233
v -0.002931 -0.004715 -0.092259
v -0.004649 -0.035564 -0.089435
v -0.025844 -0.039164 -0.107567
v -0.002702 -0.040918 -0.070113
v -0.021050 -0.040670 -0.083909
v -0.041696 -0.036126 -0.095053
v -0.069361 -0.019133 -0.137307
v -0.090334 0.003423 -0.172845
v -0.076767 -0.002811 -0.132057
v -0.054276 -0.023303 -0.080943
v -0.036200 -0.036829 -0.063957
v -0.019824 -0.042496 -0.056499
v -0.003839 -0.044112 -0.057571
v -0.018081 -0.044417 -0.036065
v -0.004104 -0.045112 -0.052575
v -0.011328 -0.045885 -0.021465
v -0.003239 -0.046154 -0.049903
v -0.002513 -0.051329 -0.014401
v -0.014505 -0.039810 0.010939
v 0.001854 -0.045119 0.022313
v -0.019018 -0.026744 0.036503
v -0.033126 -0.033624 -0.031669
v -0.026136 -0.035563 -0.003211
v -0.030762 -0.023588 0.023821
v -0.040545 -0.022778 0.001251
v -0.046205 -0.022231 -0.045325
v -0.059964 -0.006255 -0.072351
v -0.051446 -0.004848 -0.039825
v -0.042525 -0.006280 0.011647
v -0.033037 -0.008419 0.034093
v -0.019414 -0.011511 0.044309
v -0.001478 -0.016708 0.052629
v 0.028843 0.027267 0.052685
v 0.015585 0.027373 0.046333
v 0.017661 -0.000578 0.059967
v -0.001421 0.001825 0.053431
v -0.017913 0.006876 0.046207
v -0.031254 0.009519 0.034145
v -0.040006 0.012175 0.009843
v -0.048009 0.009271 -0.043435
v -0.056475 0.006659 -0.075083
v -0.073922 0.009533 -0.132335
v -0.001583 0.026608 0.039707
v -0.017866 0.026941 0.032405
v -0.028935 0.029523 0.021977
v 0.034291 -0.041310 0.055135
v 0.032033 -0.021436 0.065343
v 0.018755 -0.020701 0.060203
v 0.030684 -0.001713 0.064745
v 0.043034 -0.003317 0.069457
v 0.037796 0.029599 0.054205
v 0.026331 0.034568 0.042197
v -0.016665 0.039772 0.006059
v 0.045239 -0.020680 0.072979
v 0.042854 -0.036815 0.064665
v 0.052514 -0.030860 0.075223
v -0.001795 -0.007120 -0.078179
v -0.002767 -0.007865 -0.069993
v -0.004624 -0.007483 -0.063239
v -0.007783 -0.008159 -0.058133
v -0.007180 -0.008959 -0.054221
v -0.002175 -0.045404 -0.048091
v 0.003635 -0.053732 -0.010611
v 0.018615 -0.050605 0.029861
v -0.000906 -0.031573 0.044725
v 0.007604 -0.055196 -0.010903
v 0.000259 -0.046067 -0.049115
v -0.007180 -0.008959 -0.054221
v -0.002175 -0.045404 -0.048091
v 0.003635 -0.053732 -0.010611
v 0.018615 -0.050605 0.029861
v 0.022164 -0.052311 0.029403
v 0.034291 -0.041310 0.055135
v 0.037699 -0.043310 0.055229
v 0.042854 -0.036815 0.064665
v 0.045525 -0.039723 0.064033
v 0.055237 -0.033786 0.073939
v 0.042570 -0.045351 0.057131
v 0.058853 -0.048634 0.057545
v 0.053232 -0.059185 0.031801
v 0.080186 -0.051871 0.056851
v 0.063377 -0.038340 0.074207
v 0.052514 -0.030860 0.075223
v 0.076336 -0.069335 -0.005387
v 0.033362 -0.056161 0.030253
v 0.049486 -0.067046 -0.006501
v 0.049808 -0.062703 -0.051253
v 0.023119 -0.060876 -0.008223
v -0.005431 0.055852 -0.037973
v -0.008314 0.037001 -0.055081
v -0.008189 0.034146 -0.050121
v -0.007180 -0.008959 -0.054221
v 0.016713 0.047824 0.017361
v 0.028201 0.037405 0.039393
v 0.001728 0.057834 -0.012349
v -0.008313 0.051290 -0.036061
v -0.002521 0.054340 -0.012319
v 0.011638 0.046676 0.015947
v 0.026331 0.034568 0.042197
v 0.037796 0.029599 0.054205
v 0.019205 0.043250 0.036911
v 0.015497 0.028989 0.048319
v 0.019450 0.022048 0.056179
v 0.031534 -0.005741 0.071995
v 0.006054 0.043400 0.035773
v 0.015299 0.047738 0.033235
v 0.014743 0.031843 0.051765
v 0.019450 0.022048 0.056179
v 0.018974 0.024182 0.059703
v 0.031534 -0.005741 0.071995
v 0.030252 -0.004151 0.076217
v 0.015497 0.028989 0.048319
v 0.006054 0.043400 0.035773
v 0.005984 0.046045 0.039125
v 0.022498 0.040423 0.048641
v 0.014872 0.050099 0.036601
v 0.014872 0.050099 0.036601
v 0.015299 0.047738 0.033235
v 0.006054 0.043400 0.035773
v 0.005984 0.046045 0.039125
v -0.092208 0.002899 -0.188363
vt 0.387827 0.169648
vt 0.368955 0.167983
vt 0.376508 0.196472
vt 0.399064 0.217175
vt 0.386462 0.232577
vt 0.409317 0.249104
vt 0.395881 0.262513
vt 0.422633 0.301827
vt 0.407244 0.308808
vt 0.423926 0.349894
vt 0.411470 0.352271
vt 0.414430 0.365995
vt 0.395587 0.370448
vt 0.360263 0.193042
vt 0.364833 0.215915
vt 0.372840 0.246133
vt 0.379081 0.272631
vt 0.390161 0.318278
vt 0.393201 0.354051
vt 0.373403 0.360057
vt 0.375746 0.373547
vt 0.349675 0.366081
vt 0.350033 0.381229
vt 0.330925 0.370944
vt 0.331189 0.386650
vt 0.372000 0.327538
vt 0.361875 0.280841
vt 0.356452 0.255600
vt 0.354059 0.235091
vt 0.352005 0.215127
vt 0.348432 0.204180
vt 0.352868 0.179810
vt 0.346159 0.199294
vt 0.346253 0.173586
vt 0.344120 0.197740
vt 0.337851 0.168485
vt 0.351894 0.140437
vt 0.338622 0.125463
vt 0.335913 0.237269
vt 0.338717 0.227820
vt 0.338833 0.222216
vt 0.338729 0.217567
vt 0.342696 0.326581
vt 0.339064 0.286374
vt 0.336251 0.262414
vt 0.335476 0.247571
vt 0.298677 0.228074
vt 0.300082 0.231890
vt 0.301185 0.237639
vt 0.301781 0.244453
vt 0.303476 0.252415
vt 0.307737 0.265935
vt 0.311758 0.288591
vt 0.319074 0.329032
vt 0.442226 0.343358
vt 0.427599 0.362700
vt 0.447517 0.357565
vt 0.527868 0.281759
vt 0.551166 0.285808
vt 0.550571 0.244326
vt 0.534647 0.326522
vt 0.517848 0.326200
vt 0.521051 0.343920
vt 0.498989 0.330672
vt 0.500837 0.345711
vt 0.554722 0.328671
vt 0.537932 0.344016
vt 0.555477 0.344388
vt 0.479315 0.333080
vt 0.481606 0.348921
vt 0.490993 0.289896
vt 0.510404 0.283043
vt 0.522421 0.242787
vt 0.549946 0.220513
vt 0.518638 0.218366
vt 0.503971 0.244226
vt 0.512594 0.198477
vt 0.499067 0.219850
vt 0.480546 0.241004
vt 0.469397 0.293066
vt 0.456450 0.339032
vt 0.449877 0.294722
vt 0.456547 0.236033
vt 0.473332 0.209675
vt 0.490096 0.192519
vt 0.508028 0.185625
vt 0.483947 0.171539
vt 0.506472 0.180462
vt 0.483816 0.152792
vt 0.506084 0.177219
vt 0.489216 0.138892
vt 0.458733 0.127858
vt 0.462184 0.104330
vt 0.432797 0.115106
vt 0.462783 0.178876
vt 0.457436 0.148664
vt 0.433239 0.134593
vt 0.436234 0.156016
vt 0.448020 0.200619
vt 0.436329 0.233888
vt 0.427939 0.202095
vt 0.418942 0.151647
vt 0.416761 0.131481
vt 0.416246 0.113249
vt 0.418103 0.092270
vt 0.363414 0.074697
vt 0.365678 0.090589
vt 0.396722 0.074663
vt 0.398729 0.095428
vt 0.398569 0.114758
vt 0.400624 0.133890
vt 0.402034 0.155881
vt 0.413138 0.207786
vt 0.423259 0.239110
vt 0.437022 0.297832
vt 0.372165 0.109931
vt 0.379415 0.128393
vt 0.383065 0.145571
vt 0.441070 0.053746
vt 0.416190 0.054752
vt 0.418242 0.069627
vt 0.395168 0.060248
vt 0.394314 0.046255
vt 0.358334 0.065432
vt 0.352383 0.085544
vt 0.362536 0.152959
vt 0.411941 0.038839
vt 0.431197 0.042025
vt 0.421425 0.029258
vt 0.547146 0.205819
vt 0.545958 0.197335
vt 0.545663 0.190226
vt 0.545037 0.184259
vt 0.544025 0.180241
vt 0.506754 0.174851
vt 0.492716 0.130632
vt 0.466727 0.082068
vt 0.436036 0.093824
vt 0.009071 0.161608
vt 0.038991 0.142826
vt 0.036644 0.141504
vt 0.045096 0.107223
vt 0.049199 0.107629
vt 0.058830 0.068632
vt 0.062595 0.069352
vt 0.073371 0.042118
vt 0.077125 0.042771
vt 0.081506 0.031507
vt 0.084693 0.033502
vt 0.093425 0.022145
vt 0.082484 0.041978
vt 0.098492 0.042200
vt 0.093542 0.068200
vt 0.118920 0.043635
vt 0.102283 0.023574
vt 0.090180 0.019866
vt 0.074131 0.069260
vt 0.090711 0.104345
vt 0.115742 0.103618
vt 0.065116 0.105559
vt 0.090241 0.145912
vt 0.948121 0.476368
vt 0.950669 0.471695
vt 0.933881 0.458133
vt 0.928957 0.460491
vt 0.926082 0.435882
vt 0.920759 0.436167
vt 0.919725 0.408039
vt 0.914806 0.405985
vt 0.916485 0.378641
vt 0.913175 0.381051
vt 0.056723 0.419726
vt 0.056908 0.412327
vt 0.066198 0.413888
vt 0.053544 0.415149
vt 0.395872 0.698691
vt 0.391263 0.708968
vt 0.394981 0.709826
vt 0.382722 0.740426
vt 0.386918 0.741328
vt 0.391673 0.698389
vt 0.393361 0.678854
vt 0.397275 0.679349
vt 0.406686 0.694981
vt 0.406721 0.679138
vt 0.902135 0.349754
vt 0.892936 0.354611
vt 0.895727 0.357236
vt 0.898968 0.347378
vt 0.461624 0.354227
vn -0.851300 0.509100 0.126900
vn -0.578700 0.795000 0.181500
vn -0.725800 0.685900 0.051700
vn -0.839900 0.530900 0.112300
vn -0.699900 0.710000 0.078300
vn -0.782800 0.581500 0.221500
vn -0.640800 0.732900 0.228300
vn -0.798900 0.493000 0.344300
vn -0.649300 0.679500 0.341700
vn -0.734500 0.582600 0.347800
vn -0.428800 0.879300 0.207200
vn -0.392300 0.896900 0.204400
vn 0.037500 0.998800 0.031200
vn -0.487800 0.872800 -0.013600
vn -0.392300 0.918100 -0.054700
vn -0.336800 0.939600 0.060700
vn -0.290100 0.939200 0.183800
vn -0.235000 0.956900 0.170700
vn -0.008200 0.999800 -0.014700
vn 0.696100 0.692300 -0.190200
vn 0.702900 0.706200 -0.084900
vn 0.953700 0.197400 -0.226700
vn 0.978900 0.129900 -0.157600
vn 0.968900 -0.015300 -0.246900
vn 0.972700 -0.078300 -0.218300
vn 0.575300 0.803500 -0.153000
vn 0.524200 0.849300 -0.062600
vn 0.519500 0.854400 0.000900
vn 0.515000 0.854400 -0.069700
vn 0.334900 0.909100 -0.247500
vn 0.014600 0.905900 -0.423200
vn -0.484400 0.872400 0.065200
vn -0.472100 0.782800 -0.405200
vn -0.499400 0.852300 0.155200
vn -0.585500 0.778800 -0.224900
vn -0.505800 0.824500 0.253700
vn -0.343900 0.842800 0.414000
vn -0.328300 0.816200 0.475400
vn 0.962900 0.256100 0.085000
vn 0.973300 0.222700 0.056100
vn 0.992100 0.114200 -0.051600
vn 0.915300 0.285900 -0.283700
vn 0.933500 0.221300 -0.282100
vn 0.945800 0.240400 -0.218100
vn 0.961900 0.259200 -0.086800
vn 0.960600 0.274700 0.041100
vn 0.988600 0.038800 -0.145700
vn 0.984300 0.036500 0.172700
vn 0.920900 0.060800 0.385100
vn 0.977400 0.097600 0.187700
vn 0.993200 0.109300 0.040400
vn 0.986900 0.076500 -0.142400
vn 0.974400 0.000500 -0.224800
vn 0.959400 0.019300 -0.281500
vn -0.920000 0.260700 0.292500
vn -0.788700 0.536200 0.300800
vn -0.967800 0.184200 0.171300
vn 0.761000 -0.561700 -0.324500
vn 0.925700 -0.246400 -0.286900
vn 0.953000 -0.137400 -0.269900
vn 0.722300 -0.632200 -0.280300
vn 0.244700 -0.953300 -0.176900
vn 0.266000 -0.955500 -0.127800
vn -0.233600 -0.971700 -0.033300
vn -0.299300 -0.953400 -0.036600
vn 0.928400 -0.248600 -0.276100
vn 0.773300 -0.596300 -0.215300
vn 0.942600 -0.272200 -0.193500
vn -0.737800 -0.664200 0.119800
vn -0.771200 -0.631000 0.084000
vn -0.380400 -0.924400 -0.025800
vn 0.176200 -0.954400 -0.240700
vn 0.770800 -0.555800 -0.311300
vn 0.975400 -0.084500 -0.203600
vn 0.773900 -0.581300 -0.251400
vn 0.094600 -0.986700 -0.132200
vn 0.734200 -0.670600 -0.106100
vn -0.017700 -0.996000 -0.087100
vn -0.435100 -0.899100 0.046300
vn -0.761400 -0.629700 0.153700
vn -0.969300 -0.104600 0.222600
vn -0.952600 -0.134100 0.273000
vn -0.785000 -0.594800 0.173000
vn -0.507200 -0.857400 0.087500
vn -0.239700 -0.970000 -0.039900
vn 0.656200 -0.748800 -0.093100
vn -0.368000 -0.929800 -0.008100
vn 0.542700 -0.794300 -0.273000
vn -0.449500 -0.892900 0.024200
vn 0.365200 -0.816500 -0.447100
vn -0.422600 -0.906300 -0.000100
vn -0.503600 -0.832500 0.230900
vn -0.433900 -0.847000 0.307100
vn -0.551600 -0.616100 0.562200
vn -0.625200 -0.776100 0.082500
vn -0.562100 -0.812900 0.152300
vn -0.720800 -0.587200 0.368300
vn -0.826300 -0.523700 0.207400
vn -0.831400 -0.531400 0.162400
vn -0.965700 -0.063000 0.251900
vn -0.982100 -0.024500 0.186500
vn -0.954000 -0.076100 0.289900
vn -0.798100 -0.167500 0.578700
vn -0.536700 -0.214800 0.815900
vn -0.415800 -0.240300 0.877100
vn -0.330700 0.618300 0.712900
vn -0.320400 0.620400 0.715800
vn -0.324900 0.183600 0.927800
vn -0.334800 0.192700 0.922300
vn -0.466100 0.250100 0.848600
vn -0.760000 0.266600 0.592600
vn -0.930500 0.278600 0.237800
vn -0.919800 0.359300 0.157700
vn -0.889700 0.388600 0.239600
vn -0.886700 0.336600 0.317000
vn -0.290100 0.666500 0.686700
vn -0.368400 0.686600 0.626700
vn -0.613000 0.666000 0.425000
vn -0.431800 -0.554200 0.711600
vn -0.427900 -0.206500 0.879900
vn -0.369800 -0.250200 0.894700
vn -0.340800 0.105300 0.934200
vn -0.417800 0.047700 0.907300
vn -0.295800 0.749400 0.592400
vn -0.299900 0.767900 0.566100
vn -0.346800 0.878000 0.329800
vn -0.533300 -0.155700 0.831500
vn -0.549900 -0.374400 0.746600
vn -0.622300 -0.283900 0.729500
vn 0.999200 -0.036800 -0.014700
vn 0.984700 0.025100 0.172400
vn 0.923200 0.103000 0.370200
vn 0.951100 0.140500 0.275100
vn 0.985500 0.087500 -0.145700
vn 0.819900 -0.478000 -0.315100
vn -0.408100 -0.906500 0.108200
vn -0.402200 -0.820400 0.406500
vn -0.426300 -0.631500 0.647600
vn -0.426700 -0.206700 -0.880500
vn -0.431500 -0.700800 -0.568100
vn -0.438100 -0.651000 -0.619900
vn -0.345500 -0.938400 -0.002200
vn -0.351700 -0.932300 0.084100
vn -0.369700 -0.865700 0.337600
vn -0.351500 -0.871600 0.341500
vn -0.421100 -0.702000 0.574400
vn -0.448200 -0.689800 0.568600
vn -0.435400 -0.576000 0.691900
vn -0.373800 -0.619500 0.690200
vn -0.341600 -0.683600 0.645000
vn -0.343200 -0.749500 0.566100
vn -0.181200 -0.824900 0.535400
vn -0.158000 -0.938400 0.307400
vn -0.108600 -0.832200 0.543700
vn -0.312700 -0.767800 0.559200
vn -0.358200 -0.634000 0.685400
vn -0.260400 -0.907800 0.328600
vn -0.179800 -0.978100 0.104800
vn -0.091700 -0.973700 0.208800
vn -0.291300 -0.949100 0.119700
vn -0.220800 -0.970600 -0.095800
vn -0.998000 0.050500 -0.037900
vn -0.999700 -0.019000 0.014300
vn -0.877300 0.470500 -0.094600
vn -0.844400 0.531300 -0.068200
vn -0.624500 0.731800 0.272900
vn -0.590200 0.741400 0.319400
vn -0.331500 0.815400 0.474700
vn -0.323400 0.796800 0.510400
vn -0.343700 0.766700 0.542300
vn -0.346900 0.765000 0.542700
vn 0.060500 -0.621500 -0.781100
vn 0.060600 -0.620000 -0.782200
vn 0.059600 -0.633000 -0.771900
vn 0.062200 -0.599400 -0.798000
vn -0.799900 0.099700 0.591800
vn -0.922500 -0.372300 0.101800
vn -0.942400 -0.245700 0.227200
vn -0.902500 -0.419300 -0.098500
vn -0.898700 -0.423800 -0.113300
vn -0.900300 -0.410900 0.143400
vn -0.905300 -0.352200 0.237400
vn -0.729500 0.219000 0.648000
vn -0.263300 0.592400 0.761400
vn -0.140300 0.726500 0.672700
vn -0.471500 0.688800 -0.550700
vn -0.473200 0.690600 -0.546900
vn -0.474100 0.691500 -0.545100
vn -0.470600 0.687900 -0.552500
vn -0.977300 -0.171800 0.123900
usemtl zoey_color_bmp_004
s 1
f 1/1/1 2/2/2 3/3/3
f 4/4/4 1/1/1 3/3/3
f 4/4/4 3/3/3 5/5/5
f 5/5/5 6/6/6 4/4/4
f 5/5/5 7/7/7 6/6/6
f 8/8/8 6/6/6 7/7/7
f 8/8/8 7/7/7 9/9/9
f 10/10/10 8/8/8 9/9/9
f 10/10/10 9/9/9 11/11/11
f 10/10/10 11/11/11 12/12/12
f 11/11/11 13/13/13 12/12/12
f 3/3/3 16/14/14 17/15/15
f 5/5/5 3/3/3 17/15/15
f 5/5/5 17/15/15 18/16/16
f 18/16/16 7/7/7 5/5/5
f 18/16/16 19/17/17 7/7/7
f 9/9/9 7/7/7 19/17/17
f 9/9/9 19/17/17 20/18/18
f 11/11/11 9/9/9 20/18/18
f 11/11/11 20/18/18 21/19/19
f 11/11/11 21/19/19 13/13/13
f 22/20/20 13/13/13 21/19/19
f 22/20/20 14/21/21 13/13/13
f 23/22/22 14/21/21 22/20/20
f 23/22/22 15/23/23 14/21/21
f 24/24/24 15/23/23 23/22/22
f 24/24/24 25/25/25 15/23/23
f 26/26/26 22/20/20 21/19/19
f 26/26/26 21/19/19 20/18/18
f 20/18/18 27/27/27 26/26/26
f 20/18/18 19/17/17 27/27/27
f 28/28/28 27/27/27 19/17/17
f 28/28/28 19/17/17 18/16/16
f 18/16/16 29/29/29 28/28/28
f 18/16/16 17/15/15 29/29/29
f 17/15/15 30/30/30 29/29/29
f 17/15/15 16/14/14 30/30/30
f 31/31/31 30/30/30 16/14/14
f 31/31/31 16/14/14 32/32/32
f 32/32/32 33/33/33 31/31/31
f 32/32/32 34/34/34 33/33/33
f 35/35/35 33/33/33 34/34/34
f 35/35/35 34/34/34 36/36/36
f 36/36/36 34/34/34 37/37/37
f 36/36/36 37/37/37 38/38/38
f 29/29/29 30/30/30 39/39/39
f 40/40/40 39/39/39 30/30/30
f 40/40/40 30/30/30 31/31/31
f 31/31/31 41/41/41 40/40/40
f 31/31/31 33/33/33 41/41/41
f 42/42/42 41/41/41 33/33/33
f 42/42/42 33/33/33 35/35/35
f 43/43/43 26/26/26 27/27/27
f 43/43/43 27/27/27 44/44/44
f 45/45/45 44/44/44 27/27/27
f 45/45/45 27/27/27 28/28/28
f 28/28/28 46/46/46 45/45/45
f 28/28/28 29/29/29 46/46/46
f 29/29/29 39/39/39 46/46/46
f 47/47/47 41/41/41 42/42/42
f 47/47/47 48/48/48 41/41/41
f 40/40/40 41/41/41 48/48/48
f 40/40/40 48/48/48 49/49/49
f 49/49/49 39/39/39 40/40/40
f 49/49/49 50/50/50 39/39/39
f 46/46/46 39/39/39 50/50/50
f 46/46/46 50/50/50 51/51/51
f 46/46/46 51/51/51 52/52/52
f 46/46/46 52/52/52 45/45/45
f 45/45/45 52/52/52 53/53/53
f 45/45/45 53/53/53 44/44/44
f 54/54/54 44/44/44 53/53/53
f 54/54/54 43/43/43 44/44/44
f 43/43/43 54/54/54 24/24/24
f 43/43/43 24/24/24 23/22/22
f 26/26/26 43/43/43 23/22/22
f 26/26/26 23/22/22 22/20/20
f 56/55/55 57/56/56 55/57/57
f 58/58/58 59/59/59 60/60/60
f 61/61/61 59/59/59 58/58/58
f 58/58/58 62/62/62 61/61/61
f 61/61/61 62/62/62 63/63/63
f 64/64/64 63/63/63 62/62/62
f 64/64/64 65/65/65 63/63/63
f 61/61/61 66/66/66 59/59/59
f 66/66/66 61/61/61 67/67/67
f 61/61/61 63/63/63 67/67/67
f 66/66/66 67/67/67 68/68/68
f 70/69/69 69/70/70 65/65/65
f 70/69/69 65/65/65 64/64/64
f 71/71/71 70/69/69 64/64/64
f 62/62/62 71/71/71 64/64/64
f 62/62/62 72/72/72 71/71/71
f 58/58/58 72/72/72 62/62/62
f 72/72/72 58/58/58 73/73/73
f 58/58/58 60/60/60 73/73/73
f 74/74/74 73/73/73 60/60/60
f 75/75/75 76/76/76 73/73/73
f 72/72/72 73/73/73 76/76/76
f 71/71/71 72/72/72 76/76/76
f 77/77/77 78/78/78 75/75/75
f 75/75/75 78/78/78 76/76/76
f 79/79/79 76/76/76 78/78/78
f 71/71/71 76/76/76 79/79/79
f 80/80/80 71/71/71 79/79/79
f 71/71/71 80/80/80 70/69/69
f 81/81/81 69/70/70 70/69/69
f 82/82/82 81/81/81 70/69/69
f 82/82/82 70/69/69 80/80/80
f 82/82/82 80/80/80 83/83/83
f 80/80/80 79/79/79 83/83/83
f 84/84/84 83/83/83 79/79/79
f 79/79/79 78/78/78 84/84/84
f 85/85/85 84/84/84 78/78/78
f 77/77/77 85/85/85 78/78/78
f 86/86/86 85/85/85 77/77/77
f 86/86/86 87/87/87 85/85/85
f 88/88/88 87/87/87 86/86/86
f 88/88/88 89/89/89 87/87/87
f 89/89/89 88/88/88 90/90/90
f 89/89/89 90/90/90 91/91/91
f 92/92/92 89/89/89 91/91/91
f 92/92/92 91/91/91 93/93/93
f 94/94/94 92/92/92 93/93/93
f 85/85/85 95/95/95 84/84/84
f 87/87/87 95/95/95 85/85/85
f 87/87/87 96/96/96 95/95/95
f 89/89/89 96/96/96 87/87/87
f 89/89/89 92/92/92 96/96/96
f 92/92/92 94/94/94 97/97/97
f 92/92/92 97/97/97 96/96/96
f 96/96/96 97/97/97 98/98/98
f 96/96/96 98/98/98 95/95/95
f 95/95/95 98/98/98 99/99/99
f 95/95/95 99/99/99 84/84/84
f 84/84/84 99/99/99 83/83/83
f 82/82/82 83/83/83 100/100/100
f 100/100/100 83/83/83 99/99/99
f 100/100/100 99/99/99 101/101/101
f 98/98/98 101/101/101 99/99/99
f 98/98/98 102/102/102 101/101/101
f 97/97/97 102/102/102 98/98/98
f 97/97/97 103/103/103 102/102/102
f 94/94/94 103/103/103 97/97/97
f 94/94/94 104/104/104 103/103/103
f 94/94/94 105/105/105 104/104/104
f 106/106/106 107/107/107 108/108/108
f 109/109/109 108/108/108 107/107/107
f 108/108/108 109/109/109 105/105/105
f 104/104/104 105/105/105 109/109/109
f 104/104/104 109/109/109 110/110/110
f 110/110/110 103/103/103 104/104/104
f 110/110/110 111/111/111 103/103/103
f 102/102/102 103/103/103 111/111/111
f 102/102/102 111/111/111 112/112/112
f 112/112/112 101/101/101 102/102/102
f 112/112/112 113/113/113 101/101/101
f 113/113/113 100/100/100 101/101/101
f 113/113/113 114/114/114 100/100/100
f 82/82/82 100/100/100 114/114/114
f 82/82/82 114/114/114 115/115/115
f 81/81/81 82/82/82 115/115/115
f 81/81/81 115/115/115 56/55/55
f 81/81/81 56/55/55 55/57/57
f 109/109/109 107/107/107 116/116/116
f 110/110/110 109/109/109 116/116/116
f 110/110/110 116/116/116 117/117/117
f 117/117/117 111/111/111 110/110/110
f 117/117/117 118/118/118 111/111/111
f 112/112/112 111/111/111 118/118/118
f 112/112/112 118/118/118 1/1/1
f 1/1/1 113/113/113 112/112/112
f 1/1/1 4/4/4 113/113/113
f 4/4/4 114/114/114 113/113/113
f 4/4/4 6/6/6 114/114/114
f 115/115/115 114/114/114 6/6/6
f 115/115/115 6/6/6 8/8/8
f 8/8/8 56/55/55 115/115/115
f 8/8/8 10/10/10 56/55/55
f 56/55/55 10/10/10 57/56/56
f 10/10/10 12/12/12 57/56/56
f 119/119/119 120/120/120 121/121/121
f 121/121/121 120/120/120 122/122/122
f 120/120/120 123/123/123 122/122/122
f 106/106/106 124/124/124 125/125/125
f 107/107/107 106/106/106 125/125/125
f 107/107/107 125/125/125 38/38/38
f 38/38/38 116/116/116 107/107/107
f 38/38/38 37/37/37 116/116/116
f 117/117/117 116/116/116 37/37/37
f 117/117/117 37/37/37 126/126/126
f 126/126/126 118/118/118 117/117/117
f 126/126/126 2/2/2 118/118/118
f 1/1/1 118/118/118 2/2/2
f 120/120/120 127/127/127 123/123/123
f 128/128/128 127/127/127 120/120/120
f 119/119/119 128/128/128 120/120/120
f 128/128/128 129/129/129 127/127/127
f 126/126/126 37/37/37 34/34/34
f 126/126/126 34/34/34 32/32/32
f 32/32/32 2/2/2 126/126/126
f 32/32/32 16/14/14 2/2/2
f 3/3/3 2/2/2 16/14/14
f 74/74/74 75/75/75 73/73/73
f 75/75/75 74/74/74 130/130/130
f 75/75/75 130/130/130 77/77/77
f 77/77/77 130/130/130 131/131/131
f 77/77/77 131/131/131 86/86/86
f 86/86/86 131/131/131 132/132/132
f 86/86/86 132/132/132 88/88/88
f 88/88/88 132/132/132 133/133/133
f 88/88/88 133/133/133 90/90/90
f 134/134/134 90/90/90 133/133/133
f 134/134/134 135/135/135 90/90/90
f 135/135/135 91/91/91 90/90/90
f 135/135/135 136/136/136 91/91/91
f 136/136/136 93/93/93 91/91/91
f 136/136/136 137/137/137 93/93/93
f 137/137/137 138/138/138 93/93/93
f 137/137/137 119/119/119 138/138/138
f 121/121/121 138/138/138 119/119/119
f 94/94/94 93/93/93 138/138/138
f 94/94/94 138/138/138 105/105/105
f 121/121/121 105/105/105 138/138/138
f 108/108/108 105/105/105 121/121/121
f 121/121/121 122/122/122 108/108/108
f 106/106/106 108/108/108 122/122/122
f 141/139/139 140/140/140 142/141/141
f 143/142/142 142/141/141 140/140/140
f 143/142/142 140/140/140 139/143/143
f 144/144/144 143/142/142 139/143/143
f 144/144/144 139/143/143 145/145/145
f 146/146/146 144/144/144 145/145/145
f 146/146/146 145/145/145 147/147/147
f 147/147/147 148/148/148 146/146/146
f 147/147/147 149/149/149 148/148/148
f 150/150/150 148/148/148 149/149/149
f 151/151/151 150/150/150 149/149/149
f 152/152/152 150/150/150 151/151/151
f 151/151/151 153/153/153 152/152/152
f 154/154/154 155/155/155 152/152/152
f 152/152/152 155/155/155 150/150/150
f 150/150/150 156/156/156 148/148/148
f 151/151/151 158/157/157 153/153/153
f 159/158/158 153/153/153 158/157/157
f 157/159/159 153/153/153 159/158/158
f 161/160/160 145/145/145 139/143/143
f 161/160/160 158/157/157 145/145/145
f 147/147/147 145/145/145 158/157/157
f 147/147/147 158/157/157 151/151/151
f 151/151/151 149/149/149 147/147/147
f 159/158/158 158/157/157 161/160/160
f 161/160/160 160/161/161 159/158/158
f 163/162/162 164/163/163 169/164/164
f 163/162/162 169/164/164 162/165/165
f 170/166/166 162/165/165 169/164/164
f 170/166/166 168/167/167 162/165/165
f 171/168/168 168/167/167 170/166/166
f 171/168/168 166/169/169 168/167/167
f 172/170/170 166/169/169 171/168/168
f 172/170/170 167/171/171 166/169/169
f 178/172/172 174/173/173 175/174/174
f 178/172/172 179/175/175 174/173/173
f 180/176/176 181/177/177 182/178/178
f 183/179/179 182/178/178 181/177/177
f 183/179/179 184/180/180 182/178/178
f 180/176/176 185/181/181 181/177/177
f 186/182/182 185/181/181 180/176/176
f 186/182/182 180/176/176 187/183/183
f 188/184/184 187/183/183 180/176/176
f 188/184/184 180/176/176 182/178/178
f 188/184/184 189/185/185 187/183/183
f 192/186/186 190/187/187 191/188/188
f 192/186/186 193/189/189 190/187/187
f 81/81/81 55/57/57 194/190/190
f 81/81/81 194/190/190 69/70/70
l 176 177
l 175 176
l 164 165
l 172 173
