# Blender v2.71 (sub 0) OBJ File: ''
# www.blender.org
mtllib l_lowerleg.mtl
o Cube.072
v 0.086893 -0.121150 -0.038682
v 0.086893 -0.121150 -0.428870
v 0.086893 0.055919 -0.428869
v -0.085031 -0.121150 -0.038682
v -0.085031 -0.121150 -0.428869
v -0.085031 0.055919 -0.038682
v -0.085031 0.055919 -0.428869
v 0.086893 0.055919 -0.038682
vn 1.000000 -0.000000 0.000000
vn 0.000000 -1.000000 -0.000000
vn -1.000000 0.000000 0.000000
vn 0.000000 1.000000 0.000000
vn -0.000000 0.000000 -1.000000
vn 0.000000 -0.000000 1.000000
usemtl None.079
s off
f 1//1 2//1 3//1
f 1//2 4//2 5//2
f 6//3 7//3 5//3
f 8//4 3//4 7//4
f 2//5 5//5 7//5
f 4//6 1//6 8//6
f 8//1 1//1 3//1
f 2//2 1//2 5//2
f 4//3 6//3 5//3
f 6//4 8//4 7//4
f 3//5 2//5 7//5
f 6//6 4//6 8//6
