# Blender v2.71 (sub 0) OBJ File: ''
# www.blender.org
mtllib l_upperarm.mtl
o Cube.074
v -0.057418 -0.046388 -0.023488
v 0.069137 -0.046388 -0.023488
v 0.069137 0.053561 -0.023488
v -0.057417 -0.046388 -0.328301
v 0.069137 -0.046388 -0.328302
v -0.057417 0.053561 -0.328301
v 0.069137 0.053561 -0.328302
v -0.057418 0.053561 -0.023488
vn -0.000000 0.000000 1.000000
vn 0.000000 -1.000000 0.000000
vn -0.000000 -0.000000 -1.000000
vn -0.000000 1.000000 0.000000
vn 1.000000 0.000000 0.000000
vn -1.000000 0.000000 -0.000000
usemtl None.081
s off
f 1//1 2//1 3//1
f 4//2 5//2 2//2
f 4//3 6//3 7//3
f 8//4 3//4 7//4
f 2//5 5//5 7//5
f 4//6 1//6 8//6
f 8//1 1//1 3//1
f 1//2 4//2 2//2
f 5//3 4//3 7//3
f 6//4 8//4 7//4
f 3//5 2//5 7//5
f 6//6 4//6 8//6
