# Blender v2.71 (sub 0) OBJ File: ''
# www.blender.org
mtllib r_forearm.mtl
o Cube.001_Cube.001
v 0.050642 0.043514 -0.309766
v 0.050642 -0.056436 -0.309766
v -0.040783 -0.056435 -0.309766
v 0.050642 -0.056436 -0.018241
v -0.040783 -0.056435 -0.018241
v 0.050642 0.043514 -0.018241
v -0.040783 0.043514 -0.018241
v -0.040783 0.043514 -0.309766
vn -0.000000 0.000000 -1.000000
vn -0.000000 -1.000000 0.000000
vn 0.000000 -0.000000 1.000000
vn 0.000000 1.000000 -0.000000
vn -1.000000 0.000000 0.000000
vn 1.000000 -0.000000 -0.000000
usemtl None.083
s off
f 1//1 2//1 3//1
f 4//2 5//2 3//2
f 6//3 7//3 5//3
f 1//4 8//4 7//4
f 3//5 5//5 7//5
f 2//6 1//6 4//6
f 8//1 1//1 3//1
f 2//2 4//2 3//2
f 4//3 6//3 5//3
f 6//4 1//4 7//4
f 8//5 3//5 7//5
f 4//6 1//6 6//6
