# Blender v2.71 (sub 0) OBJ File: ''
# www.blender.org
mtllib r_lowerleg.mtl
o Cube.077
v 0.087494 -0.121162 -0.038675
v 0.087493 -0.121162 -0.428862
v 0.087493 0.055908 -0.428862
v -0.084430 -0.121162 -0.038674
v -0.084430 -0.121162 -0.428862
v -0.084430 0.055908 -0.038674
v -0.084430 0.055908 -0.428862
v 0.087494 0.055908 -0.038674
vn 1.000000 0.000000 -0.000000
vn -0.000000 -1.000000 -0.000000
vn -1.000000 0.000000 0.000000
vn 0.000000 1.000000 0.000000
vn 0.000000 0.000000 -1.000000
vn 0.000000 -0.000000 1.000000
usemtl None.085
s off
f 1//1 2//1 3//1
f 1//2 4//2 5//2
f 6//3 7//3 5//3
f 8//4 3//4 7//4
f 2//5 5//5 7//5
f 4//6 1//6 8//6
f 8//1 1//1 3//1
f 2//2 1//2 5//2
f 4//3 6//3 5//3
f 6//4 8//4 7//4
f 3//5 2//5 7//5
f 6//6 4//6 8//6
