# Blender v2.71 (sub 0) OBJ File: ''
# www.blender.org
mtllib r_upperarm.mtl
o Cube_Cube.003
v 0.062363 -0.049026 -0.323886
v -0.064192 -0.049026 -0.323886
v -0.064192 0.050924 -0.323886
v 0.062364 -0.049026 -0.019072
v -0.064192 -0.049026 -0.019072
v 0.062364 0.050924 -0.019072
v -0.064192 0.050924 -0.019072
v 0.062363 0.050924 -0.323886
vn -0.000000 0.000000 -1.000000
vn -0.000000 -1.000000 0.000000
vn 0.000000 -0.000000 1.000000
vn 0.000000 1.000000 -0.000000
vn -1.000000 0.000000 0.000000
vn 1.000000 0.000000 -0.000000
usemtl None.086
s off
f 1//1 2//1 3//1
f 4//2 5//2 2//2
f 4//3 6//3 7//3
f 8//4 3//4 7//4
f 2//5 5//5 7//5
f 4//6 1//6 8//6
f 8//1 1//1 3//1
f 1//2 4//2 2//2
f 5//3 4//3 7//3
f 6//4 8//4 7//4
f 3//5 2//5 7//5
f 6//6 4//6 8//6
